<?xml version="1.0" encoding="UTF-8" standalone="no"?>
<!DOCTYPE svg PUBLIC "-//W3C//DTD SVG 1.1//EN" "http://www.w3.org/Graphics/SVG/1.1/DTD/svg11.dtd">
<svg width="100%" height="100%" viewBox="0 0 1000 1000" version="1.1" xmlns="http://www.w3.org/2000/svg" xmlns:xlink="http://www.w3.org/1999/xlink" xml:space="preserve" xmlns:serif="http://www.serif.com/" style="fill-rule:evenodd;clip-rule:evenodd;stroke-linejoin:round;stroke-miterlimit:2;">
    <g transform="matrix(1.2277,0,0,1.2277,-113.848,-113.848)">
        <g transform="matrix(1.50867,0,0,1.50867,99.8328,-42.5182)">
            <g transform="matrix(4.16667,0,0,4.16667,-1484.16,115.207)">
                <path d="M419.553,69.363L419.444,69.3C419.528,69.226 419.614,69.152 419.702,69.079C419.649,69.174 419.599,69.268 419.553,69.363Z" style="fill:rgb(219,154,196);fill-rule:nonzero;"/>
            </g>
            <g transform="matrix(1,0,0,1,-1484.16,115.207)">
                <path d="M1805.85,125.963L1581.82,6.619L1581.82,194.048L1803.65,313.227L1805.85,125.963Z" style="fill-opacity:0.36;"/>
            </g>
            <g transform="matrix(4.16667,0,0,4.16667,-1484.16,115.207)">
                <path d="M392.453,51.598L381.818,45.458L381.818,43.375L392.453,49.515L392.453,51.598Z" style="fill:rgb(129,55,114);fill-opacity:0.25;fill-rule:nonzero;"/>
            </g>
            <g transform="matrix(4.16667,0,0,4.16667,-1484.16,115.207)">
                <path d="M392.453,47.487L381.818,41.347L381.818,39.263L392.453,45.404L392.453,47.487Z" style="fill:rgb(129,55,114);fill-opacity:0.25;fill-rule:nonzero;"/>
            </g>
            <g transform="matrix(4.16667,0,0,4.16667,-1484.16,115.207)">
                <path d="M392.453,43.188L381.818,37.049L381.818,34.965L392.453,41.105L392.453,43.188Z" style="fill:rgb(129,55,114);fill-opacity:0.25;fill-rule:nonzero;"/>
            </g>
            <g transform="matrix(4.16667,0,0,4.16667,-1484.16,115.207)">
                <path d="M392.453,39.077L381.818,32.937L381.818,30.854L392.453,36.993L392.453,39.077Z" style="fill:rgb(129,55,114);fill-opacity:0.25;fill-rule:nonzero;"/>
            </g>
            <g transform="matrix(4.16667,0,0,4.16667,-1484.16,115.207)">
                <path d="M392.453,34.778L381.818,28.639L381.818,26.556L392.453,32.695L392.453,34.778Z" style="fill:rgb(129,55,114);fill-opacity:0.25;fill-rule:nonzero;"/>
            </g>
            <g transform="matrix(4.16667,0,0,4.16667,-1484.16,115.207)">
                <path d="M392.453,30.667L381.818,24.527L381.818,22.444L392.453,28.584L392.453,30.667Z" style="fill:rgb(129,55,114);fill-opacity:0.25;fill-rule:nonzero;"/>
            </g>
            <g transform="matrix(4.16667,0,0,4.16667,-1484.16,115.207)">
                <path d="M392.453,26.369L381.818,20.228L381.818,18.145L392.453,24.286L392.453,26.369Z" style="fill:rgb(129,55,114);fill-opacity:0.25;fill-rule:nonzero;"/>
            </g>
            <g transform="matrix(4.16667,0,0,4.16667,-1484.16,115.207)">
                <path d="M392.453,22.257L381.818,16.117L381.818,14.034L392.453,20.174L392.453,22.257Z" style="fill:rgb(129,55,114);fill-opacity:0.25;fill-rule:nonzero;"/>
            </g>
            <g transform="matrix(4.16667,0,0,4.16667,-1484.16,115.207)">
                <path d="M392.453,15.982L381.818,9.842L381.818,4.284L392.453,10.424L392.453,15.982Z" style="fill:rgb(129,55,114);fill-opacity:0.25;fill-rule:nonzero;"/>
            </g>
            <g transform="matrix(4.16667,0,0,4.16667,-1484.16,115.207)">
                <path d="M421.079,32.644L420.514,32.319L420.514,26.761L423.833,28.677C422.63,30.132 421.579,31.751 421.079,32.644Z" style="fill:rgb(189,186,213);fill-rule:nonzero;"/>
            </g>
            <g transform="matrix(4.16667,0,0,4.16667,-1484.16,115.207)">
                <path d="M424.854,34.824L421.079,32.644C421.579,31.751 422.63,30.132 423.833,28.677L426.191,30.038C425.568,31.224 425.07,32.592 424.914,34.091C424.896,34.264 424.876,34.513 424.854,34.824Z" style="fill:rgb(184,38,1);fill-opacity:0.5;fill-rule:nonzero;"/>
            </g>
            <g transform="matrix(4.16667,0,0,4.16667,-1484.16,115.207)">
                <path d="M431.148,38.458L424.854,34.824C424.876,34.513 424.896,34.264 424.914,34.091C425.07,32.592 425.568,31.224 426.191,30.038L429.926,32.195C430.226,32.547 430.646,32.859 431.148,33.052L431.148,38.458Z" style="fill:rgb(184,38,1);fill-opacity:0.75;fill-rule:nonzero;"/>
            </g>
            <g transform="matrix(4.16667,0,0,4.16667,-1484.16,115.207)">
                <path d="M431.148,33.052C430.646,32.859 430.226,32.547 429.926,32.195L431.148,32.9L431.148,33.052Z" style="fill:rgb(189,160,158);fill-rule:nonzero;"/>
            </g>
            <g transform="matrix(4.16667,0,0,4.16667,-1484.16,115.207)">
                <path d="M431.148,46.24L427.036,43.866L427.036,38.307L431.148,40.682L431.148,46.24Z" style="fill:rgb(184,38,1);fill-opacity:0.5;fill-rule:nonzero;"/>
            </g>
            <g transform="matrix(4.16667,0,0,4.16667,-1484.16,149.834)">
                <path d="M431.148,46.24L427.036,43.866L427.036,38.307L431.148,40.682L431.148,46.24Z" style="fill:rgb(184,38,1);fill-opacity:0.5;fill-rule:nonzero;"/>
            </g>
            <g transform="matrix(4.16667,0,0,4.16667,-1484.16,115.207)">
                <path d="M431.148,62.859L427.036,60.485L427.036,54.927L431.148,57.301L431.148,62.859Z" style="fill:rgb(6,47,79);fill-opacity:0.25;fill-rule:nonzero;"/>
            </g>
            <g transform="matrix(4.16667,0,0,4.16667,-1484.16,115.207)">
                <path d="M431.148,71.169L427.036,68.795L427.036,63.237L431.148,65.611L431.148,71.169Z" style="fill:rgb(6,47,79);fill-opacity:0.25;fill-rule:nonzero;"/>
            </g>
            <g transform="matrix(4.16667,0,0,4.16667,-1484.16,115.207)">
                <path d="M415.635,34.34C415.475,34.31 415.31,34.281 415.142,34.253C413.507,33.98 412.978,33.731 412.155,33.731C412.066,33.731 411.974,33.734 411.878,33.74C411.673,33.752 411.511,33.8 411.384,33.87L405.505,30.476L409.697,27.617C409.862,27.912 410.077,28.166 410.318,28.306C410.45,28.381 410.575,28.417 410.688,28.417C411.02,28.417 411.252,28.112 411.252,27.6C411.252,26.912 410.834,26.114 410.318,25.816L410.301,25.808C410.176,25.738 410.056,25.705 409.947,25.705C409.616,25.705 409.384,26.01 409.384,26.522C409.384,26.74 409.438,26.966 409.512,27.186L405.064,30.221L405.001,30.184L405.001,17.798L415.635,23.938L415.635,34.34Z" style="fill:rgb(6,47,79);fill-opacity:0.37;fill-rule:nonzero;"/>
            </g>
            <g transform="matrix(4.16667,0,0,4.16667,-1484.16,115.207)">
                <path d="M415.635,36.324L411.384,33.87C411.511,33.8 411.673,33.752 411.878,33.74C411.974,33.734 412.066,33.731 412.155,33.731C412.978,33.731 413.507,33.98 415.142,34.253C415.31,34.281 415.475,34.31 415.635,34.34L415.635,36.324Z" style="fill:rgb(184,38,1);fill-opacity:0.59;fill-rule:nonzero;"/>
            </g>
            <g transform="matrix(4.16667,0,0,4.16667,-1484.16,115.207)">
                <path d="M405.934,45.324L405.934,39.702L406.339,39.936L408.461,43.865L405.934,45.324ZM408.691,43.732L406.779,40.19L410.803,42.513L408.691,43.732Z" style="fill:rgb(129,55,114);fill-opacity:0.25;fill-rule:nonzero;"/>
            </g>
            <g transform="matrix(4.16667,0,0,4.16667,-1484.16,115.207)">
                <path d="M405.934,50.63L405.934,45.324L408.461,43.865L409.954,46.629C409.656,46.882 409.47,47.343 409.47,47.972C409.47,48.05 409.473,48.13 409.479,48.209L407.781,49.19C407.139,49.56 406.518,50.05 405.934,50.63ZM411.683,46.937C411.546,46.813 411.403,46.706 411.255,46.621L411.224,46.605C410.988,46.474 410.765,46.414 410.56,46.414C410.425,46.414 410.298,46.441 410.181,46.491L408.691,43.732L410.803,42.513L415.073,44.979L411.683,46.937Z" style="fill:rgb(129,55,114);fill-opacity:0.5;fill-rule:nonzero;"/>
            </g>
            <g transform="matrix(4.16667,0,0,4.16667,-1484.16,115.207)">
                <path d="M412.055,55.623L405.934,52.089L405.934,50.63C406.518,50.05 407.139,49.56 407.781,49.19L409.479,48.209C409.567,49.466 410.328,50.848 411.255,51.384C411.507,51.529 411.747,51.598 411.965,51.598C412.598,51.598 413.042,51.013 413.042,50.034C413.042,48.915 412.463,47.642 411.683,46.937L415.073,44.979L416.569,45.843L416.569,53.006L412.055,55.623Z" style="fill:rgb(129,55,114);fill-opacity:0.75;fill-rule:nonzero;"/>
            </g>
            <g transform="matrix(4.16667,0,0,4.16667,-1484.16,115.207)">
                <path d="M412.375,55.807L412.055,55.623L416.569,53.006L416.569,53.386L412.375,55.807Z" style="fill:rgb(6,47,79);fill-opacity:0.5;fill-rule:nonzero;"/>
            </g>
            <g transform="matrix(4.16667,0,0,4.16667,-1484.16,115.207)">
                <path d="M415.007,57.327L412.375,55.807L416.569,53.386L416.569,56.388C416.061,56.692 415.535,57.008 415.007,57.327Z" style="fill:rgb(6,47,79);fill-opacity:0.6;fill-rule:nonzero;"/>
            </g>
            <g transform="matrix(4.16667,0,0,4.16667,-1484.16,115.207)">
                <path d="M416.569,58.229L415.007,57.327C415.535,57.008 416.061,56.692 416.569,56.388L416.569,58.229Z" style="fill:rgb(6,47,79);fill-opacity:0.75;fill-rule:nonzero;"/>
            </g>
            <g transform="matrix(4.16667,0,0,4.16667,-1484.16,115.207)">
                <path d="M406.779,40.19L406.339,39.936L404.724,36.945L404.863,36.945C404.917,36.945 404.971,36.945 405.026,36.946L406.779,40.19ZM400.46,34.2L393.117,29.96L393.117,29.556L400.857,34.025C400.699,34.057 400.543,34.109 400.46,34.2Z" style="fill:rgb(129,55,114);fill-opacity:0.15;fill-rule:nonzero;"/>
            </g>
            <g transform="matrix(4.16667,0,0,4.16667,-1484.16,115.207)">
                <path d="M405.026,36.946C404.971,36.945 404.917,36.945 404.863,36.945L404.724,36.945L404.502,36.534L400.46,34.2C400.543,34.109 400.699,34.057 400.857,34.025L404.624,36.199L404.668,36.281L405.026,36.946Z" style="fill:rgb(129,55,114);fill-opacity:0.15;fill-rule:nonzero;"/>
            </g>
            <g transform="matrix(4.16667,0,0,4.16667,-1484.16,115.207)">
                <path d="M408.461,43.865L406.339,39.936L406.779,40.19L408.691,43.732L408.461,43.865Z" style="fill:rgb(129,55,114);fill-opacity:0.15;fill-rule:nonzero;"/>
            </g>
            <g transform="matrix(4.16667,0,0,4.16667,-1484.16,115.207)">
                <path d="M409.479,48.209C409.473,48.13 409.47,48.05 409.47,47.972C409.47,47.343 409.656,46.882 409.954,46.629L408.461,43.865L408.691,43.732L410.181,46.491C410.298,46.441 410.425,46.414 410.56,46.414C410.765,46.414 410.988,46.474 411.224,46.605L411.255,46.621C411.403,46.706 411.546,46.813 411.683,46.937L409.479,48.209Z" style="fill:rgb(129,55,114);fill-opacity:0.15;fill-rule:nonzero;"/>
            </g>
            <g transform="matrix(4.16667,0,0,4.16667,-1484.16,115.207)">
                <path d="M411.965,51.598C411.747,51.598 411.507,51.529 411.255,51.384C410.328,50.848 409.567,49.466 409.479,48.209L411.683,46.937C412.463,47.642 413.042,48.915 413.042,50.034C413.042,51.013 412.598,51.598 411.965,51.598ZM410.88,47.61C410.55,47.61 410.318,47.915 410.318,48.427C410.318,49.114 410.736,49.912 411.252,50.21C411.383,50.286 411.509,50.322 411.622,50.322C411.954,50.322 412.185,50.016 412.185,49.504C412.185,48.817 411.767,48.018 411.252,47.721L411.235,47.713C411.109,47.643 410.989,47.61 410.88,47.61Z" style="fill:rgb(129,55,114);fill-opacity:0.15;fill-rule:nonzero;"/>
            </g>
            <g transform="matrix(4.16667,0,0,4.16667,-1484.16,115.207)">
                <path d="M411.622,50.322C411.509,50.322 411.383,50.286 411.252,50.21C410.736,49.912 410.318,49.114 410.318,48.427C410.318,47.915 410.55,47.61 410.88,47.61C410.989,47.61 411.109,47.643 411.235,47.713L411.252,47.721C411.767,48.018 412.185,48.817 412.185,49.504C412.185,50.016 411.954,50.322 411.622,50.322Z" style="fill:rgb(192,180,213);fill-rule:nonzero;"/>
            </g>
            <g transform="matrix(4.16667,0,0,4.16667,-1484.16,115.207)">
                <path d="M403.789,31.647L393.117,25.485L393.117,25.08L403.669,31.173L405.064,30.221L405.505,30.476L403.789,31.647Z" style="fill:rgb(6,47,79);fill-opacity:0.25;fill-rule:nonzero;"/>
            </g>
            <g transform="matrix(4.16667,0,0,4.16667,-1484.16,115.207)">
                <path d="M405.505,30.476L405.064,30.221L409.512,27.186C409.438,26.966 409.384,26.74 409.384,26.522C409.384,26.01 409.616,25.705 409.947,25.705C410.056,25.705 410.176,25.738 410.301,25.808L410.318,25.816C410.834,26.114 411.252,26.912 411.252,27.6C411.252,28.112 411.02,28.417 410.688,28.417C410.575,28.417 410.45,28.381 410.318,28.306C410.077,28.166 409.862,27.912 409.697,27.617L405.505,30.476ZM410.069,26.149C409.846,26.149 409.69,26.354 409.69,26.699C409.69,27.161 409.971,27.698 410.318,27.898C410.407,27.949 410.491,27.974 410.567,27.974C410.79,27.974 410.946,27.768 410.946,27.424C410.946,26.961 410.665,26.424 410.318,26.223L410.307,26.218C410.223,26.171 410.142,26.149 410.069,26.149Z" style="fill:rgb(6,47,79);fill-opacity:0.25;fill-rule:nonzero;"/>
            </g>
            <g transform="matrix(4.16667,0,0,4.16667,-1484.16,115.207)">
                <path d="M410.567,27.974C410.491,27.974 410.407,27.949 410.318,27.898C409.971,27.698 409.69,27.161 409.69,26.699C409.69,26.354 409.846,26.149 410.069,26.149C410.142,26.149 410.223,26.171 410.307,26.218L410.318,26.223C410.665,26.424 410.946,26.961 410.946,27.424C410.946,27.768 410.79,27.974 410.567,27.974Z" style="fill:rgb(217,215,231);fill-rule:nonzero;"/>
            </g>
            <g transform="matrix(4.16667,0,0,4.16667,-1484.16,115.207)">
                <path d="M417.479,43.59C417.123,42.912 416.853,42.168 416.703,41.424C416.931,41.476 417.156,41.523 417.378,41.562C417.562,41.595 417.741,41.628 417.915,41.662C418.015,42.138 418.197,42.613 418.436,43.038L417.479,43.59Z" style="fill-opacity:0.6;fill-rule:nonzero;"/>
            </g>
            <g transform="matrix(4.16667,0,0,4.16667,-1484.16,115.207)">
                <path d="M420.895,46.429C420.671,46.428 420.434,46.386 420.186,46.299C420.186,46.299 419.925,46.202 419.666,46.057C419.632,46.037 419.598,46.017 419.564,45.996C419.383,45.882 419.186,45.731 419.186,45.731C418.525,45.212 417.932,44.454 417.479,43.59L418.436,43.038C418.761,43.617 419.193,44.104 419.666,44.377C419.924,44.527 420.171,44.598 420.394,44.598C421.046,44.598 421.502,43.996 421.502,42.989C421.502,42.776 421.481,42.557 421.443,42.338C421.49,42.34 421.536,42.341 421.581,42.341C421.944,42.341 422.222,42.267 422.42,42.081C422.454,42.049 422.488,42.017 422.522,41.985C422.676,42.564 422.761,43.151 422.761,43.716C422.761,45.414 421.993,46.429 420.895,46.429Z" style="fill-opacity:0.36;fill-rule:nonzero;"/>
            </g>
            <g transform="matrix(4.16667,0,0,4.16667,-1484.16,115.207)">
                <path d="M421.581,42.341C421.536,42.341 421.49,42.34 421.443,42.338C421.238,41.166 420.52,39.973 419.666,39.48L419.632,39.464C419.385,39.327 419.15,39.262 418.935,39.262C418.284,39.262 417.829,39.862 417.829,40.868C417.829,41.128 417.859,41.395 417.915,41.662C417.741,41.628 417.562,41.595 417.378,41.562C417.156,41.523 416.931,41.476 416.703,41.424C416.616,40.992 416.569,40.56 416.569,40.14C416.569,38.444 417.337,37.431 418.435,37.431C418.796,37.431 419.194,37.541 419.611,37.772L419.666,37.8C420.952,38.542 422.055,40.226 422.522,41.985C422.488,42.017 422.454,42.049 422.42,42.081C422.222,42.267 421.944,42.341 421.581,42.341Z" style="fill-opacity:0.7;fill-rule:nonzero;"/>
            </g>
            <g transform="matrix(4.16667,0,0,4.16667,-1484.16,115.207)">
                <path d="M418.436,43.038C418.197,42.613 418.015,42.138 417.915,41.662C418.73,41.82 419.435,41.986 420.035,42.114L418.436,43.038Z" style="fill:rgb(205,183,217);fill-rule:nonzero;"/>
            </g>
            <g transform="matrix(4.16667,0,0,4.16667,-1484.16,115.207)">
                <path d="M420.394,44.598C420.171,44.598 419.924,44.527 419.666,44.377C419.193,44.104 418.761,43.617 418.436,43.038L420.035,42.114C420.593,42.234 421.06,42.32 421.443,42.338C421.481,42.557 421.502,42.776 421.502,42.989C421.502,43.996 421.046,44.598 420.394,44.598Z" style="fill:rgb(203,181,216);fill-rule:nonzero;"/>
            </g>
            <g transform="matrix(4.16667,0,0,4.16667,-1484.16,115.207)">
                <path d="M421.443,42.338C421.06,42.32 420.593,42.234 420.035,42.114C419.435,41.986 418.73,41.82 417.915,41.662C417.859,41.395 417.829,41.128 417.829,40.868C417.829,39.862 418.284,39.262 418.935,39.262C419.15,39.262 419.385,39.327 419.632,39.464L419.666,39.48C420.52,39.973 421.238,41.166 421.443,42.338Z" style="fill:rgb(206,190,196);fill-rule:nonzero;"/>
            </g>
            <g transform="matrix(4.16667,0,0,4.16667,-1484.16,115.207)">
                <path d="M402.395,47.529L393.411,43.047L393.411,41.929L403.293,46.86C402.988,47.057 402.687,47.281 402.395,47.529Z" style="fill:rgb(6,47,79);fill-opacity:0.25;fill-rule:nonzero;"/>
            </g>
            <g transform="matrix(4.16667,0,0,4.16667,-1484.16,115.207)">
                <path d="M402.796,55.398L402.498,55.223L402.576,47.619L402.395,47.529C402.687,47.281 402.988,47.057 403.293,46.86L403.582,47.004L403.511,53.921C403.251,54.398 403.011,54.893 402.796,55.398Z" style="fill:rgb(187,146,195);fill-rule:nonzero;"/>
            </g>
            <g transform="matrix(4.16667,0,0,4.16667,-1484.16,115.207)">
                <path d="M407.577,58.219L402.796,55.398C403.011,54.893 403.251,54.398 403.511,53.921L403.504,54.655L408.57,57.644L407.577,58.219ZM419.186,51.488L419.186,45.731C419.31,45.828 419.436,45.917 419.564,45.996C419.599,46.018 419.633,46.039 419.666,46.057C419.843,46.159 420.017,46.24 420.186,46.299L420.186,50.909L419.186,51.488Z" style="fill:rgb(6,47,79);fill-opacity:0.6;fill-rule:nonzero;"/>
            </g>
            <g transform="matrix(4.16667,0,0,4.16667,-1484.16,115.207)">
                <path d="M407.884,58.4L407.577,58.219L408.57,57.644L408.878,57.826L407.884,58.4ZM419.186,51.875L419.186,51.488L420.186,50.909L420.186,51.297L419.186,51.875Z" style="fill:rgb(6,47,79);fill-opacity:0.5;fill-rule:nonzero;"/>
            </g>
            <g transform="matrix(4.16667,0,0,4.16667,-1484.16,115.207)">
                <path d="M410.641,60.027L407.884,58.4L408.878,57.826L411.588,59.425C411.254,59.635 410.936,59.836 410.641,60.027ZM419.186,54.821L419.186,51.875L420.186,51.297L420.186,54.219C420.112,54.265 420.036,54.31 419.961,54.356C419.732,54.494 419.472,54.65 419.186,54.821Z" style="fill:rgb(129,55,114);fill-opacity:0.75;fill-rule:nonzero;"/>
            </g>
            <g transform="matrix(4.16667,0,0,4.16667,-1484.16,115.207)">
                <path d="M420.186,65.659L410.641,60.027C410.936,59.836 411.254,59.635 411.588,59.425L419.186,63.908L419.186,54.821C419.472,54.65 419.732,54.494 419.961,54.356C420.036,54.31 420.112,54.265 420.186,54.219L420.186,65.659Z" style="fill:rgb(129,55,114);fill-opacity:0.59;fill-rule:nonzero;"/>
            </g>
            <g transform="matrix(4.16667,0,0,4.16667,-1484.16,115.207)">
                <path d="M420.186,46.299C420.017,46.24 419.843,46.159 419.666,46.057C419.925,46.202 420.186,46.299 420.186,46.299ZM419.564,45.996C419.436,45.917 419.31,45.828 419.186,45.731C419.186,45.731 419.383,45.882 419.564,45.996Z" style="fill:rgb(191,170,208);fill-rule:nonzero;"/>
            </g>
        </g>
        <g transform="matrix(1,0,0,1,84.4944,0)">
            <g transform="matrix(4.16667,0,0,4.16667,331.673,-658.306)">
                <path d="M21.914,364.087C15.416,364.087 8.95,362.765 3.895,357.921C1.109,355.252 -0.193,352.197 0.023,348.844C0.338,343.974 3.819,339.758 6.971,337.436C12.325,333.492 23.065,332.376 23.519,332.33C23.994,332.29 24.408,332.627 24.455,333.096C24.502,333.565 24.16,333.984 23.69,334.032C23.583,334.043 12.961,335.147 7.985,338.812C5.273,340.81 2.007,344.666 1.729,348.954C1.546,351.781 2.673,354.383 5.077,356.687C12.851,364.134 24.144,362.633 34.107,361.306C36.99,360.923 39.713,360.56 42.2,360.438C42.656,360.409 43.072,360.779 43.096,361.251C43.119,361.723 42.755,362.123 42.283,362.146C39.868,362.265 37.179,362.623 34.333,363.001C30.441,363.519 26.17,364.087 21.914,364.087Z" style="fill:rgb(186,107,168);fill-rule:nonzero;"/>
            </g>
            <g transform="matrix(4.16667,0,0,4.16667,331.673,-658.306)">
                <path d="M43.004,349.696C43.004,355.048 35.297,359.386 25.789,359.386C16.281,359.386 8.573,355.048 8.573,349.696C8.573,344.346 16.281,340.007 25.789,340.007C35.297,340.007 43.004,344.346 43.004,349.696Z" style="fill:rgb(99,26,86);fill-rule:nonzero;"/>
            </g>
            <g transform="matrix(4.16667,0,0,4.16667,331.673,-658.306)">
                <rect x="8.573" y="346.258" width="34.431" height="3.438" style="fill:rgb(65,0,55);fill-rule:nonzero;"/>
            </g>
            <g transform="matrix(4.16667,0,0,4.16667,331.673,-658.306)">
                <path d="M43.004,346.258C43.004,351.608 35.297,355.947 25.789,355.947C16.281,355.947 8.573,351.608 8.573,346.258C8.573,340.906 16.281,336.568 25.789,336.568C35.297,336.568 43.004,340.906 43.004,346.258Z" style="fill:rgb(113,40,99);fill-rule:nonzero;"/>
            </g>
            <g transform="matrix(4.16667,0,0,4.16667,331.673,-658.306)">
                <path d="M27.973,345.825C27.973,346.504 26.995,347.055 25.789,347.055C24.582,347.055 23.605,346.504 23.605,345.825C23.605,345.146 24.582,344.596 25.789,344.596C26.995,344.596 27.973,345.146 27.973,345.825Z" style="fill:rgb(94,20,82);fill-rule:nonzero;"/>
            </g>
            <g transform="matrix(4.16667,0,0,4.16667,331.673,-658.306)">
                <rect x="23.605" y="266.47" width="4.368" height="79.355" style="fill:rgb(110,37,96);fill-rule:nonzero;"/>
            </g>
            <g transform="matrix(4.16667,0,0,4.16667,331.673,-658.306)">
                <path d="M28.827,334.396L28.827,335.222C28.827,346.199 34.816,346.199 38.395,346.199C42.379,346.199 44.773,345.541 45.512,344.244C46.033,343.329 45.751,341.945 44.674,340.131C42.811,336.995 36.439,334.068 28.827,334.396ZM38.395,347.909C35.02,347.909 27.117,347.909 27.117,335.222L27.118,270.008L28.827,270.008L28.827,332.685C37.34,332.328 44.056,335.742 46.144,339.258C47.558,341.639 47.845,343.601 46.998,345.091C45.56,347.617 41.399,347.909 38.395,347.909Z" style="fill:rgb(185,107,167);fill-rule:nonzero;"/>
            </g>
            <g transform="matrix(4.16667,0,0,4.16667,331.673,-658.306)">
                <path d="M33.312,275.03L16.966,265.532L23.024,253.601L38.979,262.829L33.312,275.03Z" style="fill:rgb(129,55,114);fill-rule:nonzero;"/>
            </g>
            <g transform="matrix(4.16667,0,0,4.16667,331.673,-658.306)">
                <path d="M24.482,257.104C24.482,260.333 22.519,264.084 20.098,265.481C17.676,266.88 15.714,265.395 15.714,262.168C15.714,258.939 17.676,255.187 20.098,253.79C22.519,252.391 24.482,253.876 24.482,257.104Z" style="fill:rgb(107,34,93);fill-rule:nonzero;"/>
            </g>
            <g transform="matrix(4.16667,0,0,4.16667,331.673,-658.306)">
                <path d="M40.582,266.422C40.582,269.65 38.619,273.401 36.197,274.799C33.776,276.197 31.813,274.713 31.813,271.484C31.813,268.256 33.776,264.506 36.197,263.107C38.619,261.709 40.582,263.193 40.582,266.422Z" style="fill:rgb(156,81,140);fill-rule:nonzero;"/>
            </g>
            <g transform="matrix(4.16667,0,0,4.16667,331.673,-658.306)">
                <path d="M18.021,261.694L18.021,263.859L26.997,269.041L26.997,266.876L18.021,261.694Z" style="fill:rgb(254,64,16);fill-rule:nonzero;"/>
            </g>
        </g>
        <g transform="matrix(1,0,0,1,84.4944,0)">
            <g transform="matrix(4.16667,0,0,4.16667,331.673,-658.306)">
                <path d="M71.866,286.791C71.866,286.791 71.274,289.261 70.807,290.896C70.34,292.532 70.287,293.389 69.846,295.024C69.405,296.66 70.859,296.709 71.866,296.709C73.377,296.709 75.035,295.747 75.732,295.462C77.548,294.719 77.193,292.687 77.349,291.13C77.505,289.572 78.439,286.535 78.128,285.444C77.816,284.354 71.866,286.791 71.866,286.791Z" style="fill:rgb(224,173,214);fill-rule:nonzero;"/>
            </g>
            <g transform="matrix(4.16667,0,0,4.16667,331.673,-658.306)">
                <path d="M57.222,282.958C57.222,282.958 55.515,285.385 53.173,287.031C51.128,288.468 51.233,288.946 51.07,290.278C50.852,292.051 53.119,292.318 54.626,291.376C55.193,291.021 56.111,291.086 56.911,290.629C58.236,289.872 59.595,288.148 60.649,287.847C62.359,287.358 63.335,287.563 63.852,286.307C64.428,284.91 64.251,283.866 63.852,282.721C62.986,280.228 57.222,282.958 57.222,282.958Z" style="fill:rgb(224,173,214);fill-rule:nonzero;"/>
            </g>
            <g transform="matrix(4.16667,0,0,4.16667,331.673,-658.306)">
                <path d="M55.759,211.41C55.759,211.41 54.985,213.053 53.818,215.852C52.92,218.008 51.518,221.63 51.518,221.63C51.518,221.63 47.852,220.014 45.191,219.388C44.753,219.284 43.702,218.808 43.346,218.665C42.768,219.86 41.91,220.789 41.333,221.984C42.764,222.903 45.862,224.868 47.708,225.695C50.58,226.982 53.063,227.142 54.177,226.678C55.291,226.213 59.405,217.78 59.405,217.78L55.759,211.41Z" style="fill:rgb(203,129,77);fill-rule:nonzero;"/>
            </g>
            <g transform="matrix(4.16667,0,0,4.16667,331.673,-658.306)">
                <path d="M61.555,205.515C61.555,205.515 59.966,204.219 56.796,207.334C53.626,210.449 53.018,216.252 53.018,216.252C53.018,216.252 55.096,218.672 58.719,218.106C62.342,217.541 61.555,205.515 61.555,205.515Z" style="fill:rgb(112,39,98);fill-rule:nonzero;"/>
            </g>
            <g transform="matrix(4.16667,0,0,4.16667,331.673,-658.306)">
                <path d="M61.856,228.988C58.868,229.877 56.109,230.95 56.109,230.95C56.109,230.95 54.217,244.917 53.638,253.313C52.979,262.857 55.402,282.787 55.402,282.787C55.402,282.787 55.739,284.824 59.252,284.535C61.948,284.313 63.999,281.945 63.999,281.945L62.246,259.125L65.332,245.669C64.878,238.021 62.465,236.626 61.856,228.988Z" style="fill:rgb(6,47,79);fill-rule:nonzero;"/>
            </g>
            <g transform="matrix(4.16667,0,0,4.16667,331.673,-658.306)">
                <path d="M79.61,284.224C79.61,284.224 77.496,269.217 73.468,260.152C73.132,253.27 75.7,245.382 74.134,238.56C72.177,230.036 69.11,230.27 69.11,230.27C69.296,228.838 66.154,229.081 62.882,229.706C62.888,235.415 62.925,241.125 62.887,246.833L62.955,246.496C62.955,246.496 63.418,257.837 65.171,264.014C67.485,272.169 69.384,287.474 69.384,287.474C69.384,287.474 73.959,289.106 77.092,287.54C80.225,285.974 79.61,284.224 79.61,284.224Z" style="fill:rgb(8,42,74);fill-rule:nonzero;"/>
            </g>
            <g transform="matrix(4.16667,0,0,4.16667,331.673,-658.306)">
                <path d="M69.11,238.323C69.11,238.323 70.24,242.156 71.089,243.406C71.937,244.656 74.595,245.406 74.595,245.406C74.595,245.406 75.01,240.213 73.765,237.101C72.52,233.989 69.11,238.323 69.11,238.323Z" style="fill:rgb(1,32,63);fill-rule:nonzero;"/>
            </g>
            <g transform="matrix(4.16667,0,0,4.16667,331.673,-658.306)">
                <path d="M60.765,206.251C61.375,206.506 61.673,207.103 61.673,207.103L68.876,207.235C68.876,207.235 74.731,208.443 76.109,212.978C76.21,214.401 76.042,217.718 75.814,219.209C75.603,219.339 74.234,219.119 74.134,219.41C72.303,224.742 73.382,231.743 73.765,237.101C67.197,241.829 59.366,239.384 55.402,236.432C56.938,225.942 52.433,213.832 60.765,206.251Z" style="fill:rgb(144,69,128);fill-rule:nonzero;"/>
            </g>
            <g transform="matrix(4.16667,0,0,4.16667,331.673,-658.306)">
                <path d="M62.482,206.077L67.952,202.103L69.11,208.531C69.11,208.531 67.998,209.86 66.358,210.721C64.988,211.439 63.33,212.098 61.834,212.563C61.206,211.439 61.834,209.851 61.834,209.851L62.482,206.077Z" style="fill:rgb(184,115,66);fill-rule:nonzero;"/>
            </g>
            <g transform="matrix(4.16667,0,0,4.16667,331.673,-658.306)">
                <path d="M68.593,195.038C69.803,196.58 70.178,200.444 68.512,203.164C67.032,205.581 63.655,206.948 62.155,207.189C59.476,207.622 56.587,200.223 59.644,195.697C62.56,191.382 67.036,193.054 68.593,195.038Z" style="fill:rgb(203,129,77);fill-rule:nonzero;"/>
            </g>
            <g transform="matrix(4.16667,0,0,4.16667,331.673,-658.306)">
                <path d="M66.223,192.214C68.753,192.845 69.976,193.35 70.023,194.726C70.665,195.219 71.102,195.944 71.329,196.609C71.635,197.507 71.587,198.805 71.316,200.099C70.008,202.968 68.512,203.164 68.512,203.164C68.512,203.164 68.903,201.599 68.557,200.919C68.263,200.337 67.333,200.236 67.02,201.271C66.675,201.377 66.261,201.346 66.261,201.346L66.575,199.278C66.575,199.278 65,200.077 63.212,199.044C61.555,198.085 59.943,198.642 59.366,199.187C59.015,198.307 58.929,195.421 59.718,194.923C59.047,194.395 58.719,193.916 58.332,193.341C60.197,193.581 63.459,191.033 66.223,192.214Z" style="fill:rgb(47,26,52);fill-rule:nonzero;"/>
            </g>
            <g transform="matrix(4.16667,0,0,4.16667,331.673,-658.306)">
                <path d="M62.306,207.103C61.949,209.143 61.834,212.563 61.834,212.563C61.834,212.563 59.77,210.948 58.719,210.781C59.014,209.304 60.486,206.512 60.486,206.512C60.648,206.694 61.541,207.394 62.306,207.103Z" style="fill:rgb(97,55,114);fill-rule:nonzero;"/>
            </g>
            <g transform="matrix(4.16667,0,0,4.16667,331.673,-658.306)">
                <path d="M68.567,205.515C68.567,205.515 69.527,206.643 69.634,207.187C69.972,208.915 67.599,211.249 66.217,213.047C62.389,212.563 61.834,212.563 61.834,212.563C61.834,212.563 63.905,210.219 65.117,209.256C67.96,206.998 68.567,205.515 68.567,205.515Z" style="fill:rgb(97,55,114);fill-rule:nonzero;"/>
            </g>
            <g transform="matrix(4.16667,0,0,4.16667,331.673,-658.306)">
                <path d="M62.75,229.364C62.75,229.364 62.062,230.344 62.041,230.614C62.02,230.886 63.488,230.97 63.666,230.448C63.844,229.926 62.75,229.364 62.75,229.364Z" style="fill:rgb(251,196,179);fill-rule:nonzero;"/>
            </g>
            <g transform="matrix(4.16667,0,0,4.16667,331.673,-658.306)">
                <path d="M61.342,225.951C59.777,226.718 59.507,228.286 60.512,228.844C61.518,229.401 62.451,229.212 62.451,229.212C62.451,229.212 63.008,231.416 63.02,232.781C63.029,233.782 63.27,235.864 63.52,236.636C64.055,238.285 65.719,238.078 65.826,235.984C65.932,233.89 65.793,227.899 64.28,226.38C63.698,225.796 62.203,225.529 61.342,225.951Z" style="fill-rule:nonzero;"/>
            </g>
            <g transform="matrix(4.16667,0,0,4.16667,331.673,-658.306)">
                <path d="M73.083,219.803C73.52,223.344 74.661,227.219 74.661,227.219C74.661,227.219 68.456,229.422 67.27,229.323C66.603,229.267 65.853,229.073 65.357,228.988C65.438,229.402 65.438,229.402 65.523,229.906C64.747,229.774 62.875,229.918 62.02,230.469C61.605,230.737 61.773,231.364 62.125,231.823C61.77,232.261 61.645,232.573 62.208,233.114C61.916,233.448 62.126,234.073 62.583,234.448C62.502,234.73 62.354,235.094 62.882,235.344C64.22,235.977 65.312,235.503 66.375,235.031C67.312,234.615 67.525,233.915 68.296,233.241C68.725,232.866 70.791,232.719 73.645,232.511C76.142,232.328 78.183,231.667 79.604,231.219C80.793,230.844 80.932,229.414 80.708,227.427C80.285,223.682 79.373,219.838 78.645,218.531C77.531,216.531 73.083,219.803 73.083,219.803Z" style="fill:rgb(203,129,77);fill-rule:nonzero;"/>
            </g>
            <g transform="matrix(4.16667,0,0,4.16667,331.673,-658.306)">
                <path d="M73.793,209.614C78.096,210.183 78.864,215.423 80.037,221.909C77.016,223.41 75.15,224.509 72.444,223.588C72.186,222.307 71.617,220.918 71.293,218.943C70.685,215.241 71.407,209.299 73.793,209.614Z" style="fill:rgb(112,39,98);fill-rule:nonzero;"/>
            </g>
            <g transform="matrix(4.16667,0,0,4.16667,331.673,-658.306)">
                <path d="M71.207,198.387L71.254,198.46C71.439,198.159 71.544,197.839 71.558,197.507L71.562,197.431C71.562,197.107 71.492,196.904 71.329,196.609C71.332,196.698 71.448,196.963 71.455,197.314C71.462,197.629 71.37,198.014 71.207,198.387Z" style="fill:rgb(117,74,133);fill-rule:nonzero;"/>
            </g>
            <g transform="matrix(4.16667,0,0,4.16667,331.673,-658.306)">
                <path d="M66.255,204.156L67.654,203.359L66.91,202.828L65.997,202.997L66.255,204.156Z" style="fill:rgb(73,42,81);fill-rule:nonzero;"/>
            </g>
            <g transform="matrix(4.16667,0,0,4.16667,331.673,-658.306)">
                <path d="M58.735,195.852L60.147,195.035L60.703,196.889L59.944,197.224L58.735,195.852Z" style="fill:rgb(73,42,81);fill-rule:nonzero;"/>
            </g>
            <g transform="matrix(4.16667,0,0,4.16667,331.673,-658.306)">
                <path d="M60.643,199.564C60.643,199.564 61.936,201.556 62.753,202.027C63.57,202.499 67.178,203.337 67.178,203.337C67.561,203.558 67.875,203.321 67.875,202.81L67.875,200.161C67.875,199.607 67.692,199.197 67.362,198.969C67.241,198.886 67.05,198.8 66.836,198.748C65.917,198.526 64.545,198.18 62.861,197.224C61.437,196.418 61.064,195.682 60.744,195.208C60.68,195.112 60.537,194.999 60.376,194.974C60.127,194.935 59.946,195.198 59.946,195.584L59.946,198.232C59.946,198.744 60.26,199.344 60.643,199.564Z" style="fill:rgb(73,42,81);fill-rule:nonzero;"/>
            </g>
            <g transform="matrix(4.16667,0,0,4.16667,331.673,-658.306)">
                <path d="M63.843,205.548L66.235,204.169L64.236,202.224L63.331,202.77L63.843,205.548Z" style="fill:rgb(215,208,232);fill-rule:nonzero;"/>
            </g>
            <g transform="matrix(4.16667,0,0,4.16667,331.673,-658.306)">
                <path d="M56.372,197.214L58.798,195.815L59.133,198.896L56.372,197.214Z" style="fill:rgb(215,208,232);fill-rule:nonzero;"/>
            </g>
            <g transform="matrix(4.16667,0,0,4.16667,331.673,-658.306)">
                <path d="M59.279,200.344L65.814,204.116C66.197,204.338 66.51,204.1 66.51,203.589L66.51,200.94C66.51,200.429 66.197,199.829 65.814,199.608L59.279,195.835C58.896,195.614 58.582,195.85 58.582,196.362L58.582,199.012C58.582,199.522 58.896,200.122 59.279,200.344Z" style="fill:rgb(215,208,232);fill-rule:nonzero;"/>
            </g>
            <g transform="matrix(4.16667,0,0,4.16667,331.673,-658.306)">
                <path d="M56.834,201.753L63.368,205.525C63.752,205.747 64.066,205.51 64.066,204.998L64.066,202.349C64.066,201.838 63.752,201.238 63.368,201.017L56.834,197.245C56.45,197.023 56.136,197.261 56.136,197.771L56.136,200.421C56.136,200.932 56.45,201.531 56.834,201.753Z" style="fill:rgb(47,26,52);fill-rule:nonzero;"/>
            </g>
            <g transform="matrix(4.16667,0,0,4.16667,331.673,-658.306)">
                <path d="M63.097,205.976L63.843,205.548L63.619,205.016L62.727,205.417L63.097,205.976Z" style="fill:rgb(47,26,52);fill-rule:nonzero;"/>
            </g>
            <g transform="matrix(4.16667,0,0,4.16667,331.673,-658.306)">
                <path d="M55.654,197.625L56.372,197.214L56.682,197.52L56.013,198.129L55.654,197.625Z" style="fill:rgb(47,26,52);fill-rule:nonzero;"/>
            </g>
            <g transform="matrix(4.16667,0,0,4.16667,331.673,-658.306)">
                <path d="M56.099,202.174L62.634,205.947C63.017,206.168 63.331,205.932 63.331,205.42L63.331,202.77C63.331,202.26 63.017,201.66 62.634,201.438L56.099,197.666C55.716,197.444 55.402,197.682 55.402,198.193L55.402,200.842C55.402,201.353 55.716,201.953 56.099,202.174Z" style="fill:rgb(73,42,81);fill-rule:nonzero;"/>
            </g>
            <g transform="matrix(4.16667,0,0,4.16667,331.673,-658.306)">
                <path d="M62.438,201.659L56.296,198.101C55.968,197.913 55.7,198.115 55.7,198.553L55.7,200.815C55.7,201.253 55.968,201.765 56.296,201.954L62.438,205.511C62.765,205.7 63.033,205.498 63.033,205.06L63.033,202.798C63.033,202.36 62.765,201.849 62.438,201.659Z" style="fill:rgb(92,54,104);fill-rule:nonzero;"/>
            </g>
            <g transform="matrix(4.16667,0,0,4.16667,331.673,-658.306)">
                <path d="M58.396,199.975L60.101,200.96L60.101,200.64L58.396,199.656L58.396,199.975Z" style="fill:white;fill-rule:nonzero;"/>
            </g>
            <g transform="matrix(4.16667,0,0,4.16667,331.673,-658.306)">
                <path d="M65.838,203.882L64.838,204.459C64.649,204.568 64.493,204.451 64.493,204.199L64.493,202.866C64.493,202.613 64.649,202.317 64.838,202.208L65.838,201.631C66.027,201.521 66.182,201.639 66.182,201.89L66.182,203.224C66.182,203.476 66.027,203.772 65.838,203.882Z" style="fill:rgb(190,185,219);fill-rule:nonzero;"/>
            </g>
            <g transform="matrix(4.16667,0,0,4.16667,331.673,-658.306)">
                <path d="M66.071,201.618L65.972,201.557L65.939,201.588L66.037,201.68L66.071,201.618Z" style="fill:rgb(190,185,219);fill-rule:nonzero;"/>
            </g>
            <g transform="matrix(4.16667,0,0,4.16667,331.673,-658.306)">
                <path d="M64.521,204.419L64.632,204.486L64.674,204.419L64.536,204.36L64.521,204.419Z" style="fill:rgb(190,185,219);fill-rule:nonzero;"/>
            </g>
            <g transform="matrix(4.16667,0,0,4.16667,331.673,-658.306)">
                <path d="M65.759,203.832L64.759,204.409C64.569,204.518 64.414,204.401 64.414,204.148L64.414,202.815C64.414,202.563 64.569,202.266 64.759,202.157L65.759,201.58C65.948,201.471 66.103,201.588 66.103,201.841L66.103,203.174C66.103,203.427 65.948,203.723 65.759,203.832Z" style="fill:white;fill-rule:nonzero;"/>
            </g>
            <g transform="matrix(4.16667,0,0,4.16667,331.673,-658.306)">
                <path d="M65.709,202.749C65.709,203.062 65.518,203.426 65.283,203.561C65.049,203.697 64.859,203.554 64.859,203.24C64.859,202.928 65.049,202.563 65.283,202.428C65.518,202.292 65.709,202.436 65.709,202.749Z" style="fill:rgb(190,185,219);fill-rule:nonzero;"/>
            </g>
            <g transform="matrix(4.16667,0,0,4.16667,331.673,-658.306)">
                <path d="M63.154,198.61L60.747,197.217L61.052,197.041L63.459,198.433L63.154,198.61Z" style="fill:rgb(92,54,104);fill-rule:nonzero;"/>
            </g>
            <g transform="matrix(4.16667,0,0,4.16667,331.673,-658.306)">
                <path d="M67.14,192.506L67.139,192.507C66.486,192.119 65.629,192.149 64.69,192.691C63.259,193.516 62.018,195.311 61.396,197.249L63.162,198.271C63.783,196.334 65.024,194.54 66.454,193.715L66.608,193.631C67.059,193.394 67.592,193.18 67.988,193.167C68.72,193.144 69.244,193.289 69.244,193.289L67.14,192.506Z" style="fill:rgb(92,54,104);fill-rule:nonzero;"/>
            </g>
            <g transform="matrix(4.16667,0,0,4.16667,331.673,-658.306)">
                <path d="M67.106,192.398C66.41,192.182 65.578,192.036 64.63,192.584C63.183,193.419 61.928,195.233 61.3,197.192L63.085,198.225C63.713,196.266 64.967,194.454 66.413,193.619L66.568,193.534C67.024,193.296 67.6,193.049 68,193.061C68.741,193.085 69.244,193.289 69.244,193.289C69.244,193.289 68.446,192.814 67.106,192.398Z" style="fill:rgb(117,74,133);fill-rule:nonzero;"/>
            </g>
            <g transform="matrix(4.16667,0,0,4.16667,331.673,-658.306)">
                <path d="M67.705,200.254L67.321,200.48L67.321,203.082L67.705,202.861L67.705,200.254Z" style="fill:rgb(215,208,232);fill-rule:nonzero;"/>
            </g>
            <g transform="matrix(4.16667,0,0,4.16667,331.673,-658.306)">
                <path d="M71.479,199.423L71.479,197.507L71.477,197.507C71.464,197.834 71.36,198.149 71.177,198.446C70.948,198.818 70.598,199.16 70.15,199.46C69.477,199.911 68.719,200.253 67.567,200.619L67.563,200.62L67.513,200.689L67.563,202.651C69.866,202.023 71.481,200.846 71.481,199.46L71.479,199.423Z" style="fill:rgb(117,74,133);fill-rule:nonzero;"/>
            </g>
            <g transform="matrix(4.16667,0,0,4.16667,331.673,-658.306)">
                <path d="M71.56,199.451L71.56,197.507L71.558,197.507C71.544,197.839 71.439,198.159 71.254,198.46C71.022,198.837 70.666,199.184 70.212,199.489C69.513,199.956 68.726,200.308 67.513,200.689L67.513,202.748C69.89,202.115 71.562,200.91 71.562,199.489L71.56,199.451Z" style="fill:rgb(92,54,104);fill-rule:nonzero;"/>
            </g>
            <g transform="matrix(4.16667,0,0,4.16667,331.673,-658.306)">
                <path d="M67.321,200.48L67.186,200.41L67.186,203L67.321,203.082L67.321,200.48Z" style="fill:rgb(190,185,219);fill-rule:nonzero;"/>
            </g>
            <g transform="matrix(4.16667,0,0,4.16667,331.673,-658.306)">
                <path d="M67.186,200.41L67.321,200.48L67.705,200.254L67.579,200.186L67.186,200.41Z" style="fill:white;fill-rule:nonzero;"/>
            </g>
            <g transform="matrix(4.16667,0,0,4.16667,331.673,-658.306)">
                <path d="M40.103,219.272C39.61,217.447 38.976,216.121 38.459,215.242L38.46,215.241L38.456,215.236C38.1,214.632 37.658,213.974 37.361,213.541C37.204,213.312 36.543,213.115 36.27,213.062C35.4,212.896 33.74,212.573 32.368,213.371C31.068,214.127 31.348,215.687 33.63,216.094C34.135,216.183 35.402,216.089 36.026,215.974C36.085,216.468 37.53,221.468 38.061,223.005C38.604,224.573 40.023,225.323 40.522,224.573C41.02,223.823 40.855,222.056 40.103,219.272Z" style="fill-rule:nonzero;"/>
            </g>
            <g transform="matrix(4.16667,0,0,4.16667,331.673,-658.306)">
                <path d="M32.737,213.185C32.737,213.185 31.833,213.969 33.114,214.625C34.395,215.281 36.365,214.901 36.824,214.594C37.406,214.203 37.739,213.758 36.973,213.207C36.208,212.656 34.039,212.628 32.737,213.185Z" style="fill:rgb(111,38,97);fill-rule:nonzero;"/>
            </g>
            <g transform="matrix(4.16667,0,0,4.16667,331.673,-658.306)">
                <path d="M33.217,213.016C33.217,213.016 32.438,213.731 33.469,214.259C34.501,214.787 36.085,214.481 36.455,214.234C36.924,213.92 37.191,213.561 36.575,213.118C35.959,212.675 34.265,212.567 33.217,213.016Z" style="fill:rgb(64,0,54);fill-rule:nonzero;"/>
            </g>
            <g transform="matrix(4.16667,0,0,4.16667,331.673,-658.306)">
                <path d="M44.01,219.015C44.01,219.015 42.076,218.012 40.336,217C39.395,216.453 38.963,216.235 38.402,216.08C37.573,215.85 36.994,215.788 36.77,215.937C36.395,216.187 37.025,216.906 38.176,217.094C38.958,217.969 39.574,218.308 40.073,219.163C40.336,220.179 40.723,222.109 40.723,222.109L42.286,222.14L44.01,219.015Z" style="fill:rgb(203,129,77);fill-rule:nonzero;"/>
            </g>
            <g transform="matrix(4.16667,0,0,4.16667,331.673,-658.306)">
                <path d="M36.02,217.442C37.041,217.219 37.989,217.515 37.958,218.183C37.947,218.398 37.696,218.586 37.348,218.609C37.76,218.7 38.035,218.801 37.989,219.219C37.967,219.416 37.656,219.557 37.442,219.547C38.39,219.969 38.161,220.703 37.723,220.656C38.176,220.906 38.583,221.594 37.77,221.719C36.962,221.844 35.895,221.344 36.02,220.656C35.505,220.359 35.622,219.64 36.036,219.484C35.52,219.265 35.614,218.721 35.973,218.391C35.536,218.234 35.399,217.578 36.02,217.442Z" style="fill:rgb(203,129,77);fill-rule:nonzero;"/>
            </g>
            <g transform="matrix(4.16667,0,0,4.16667,331.673,-658.306)">
                <path d="M63.285,225.823C62.589,225.639 61.717,225.681 61.099,226.087C60.718,226.338 60.302,226.868 60.634,227.239C61.072,227.731 64.062,228.114 64.382,226.845C64.534,226.239 63.769,225.952 63.285,225.823Z" style="fill:rgb(111,38,97);fill-rule:nonzero;"/>
            </g>
            <g transform="matrix(4.16667,0,0,4.16667,331.673,-658.306)">
                <path d="M63.048,225.793C62.551,225.661 61.929,225.691 61.489,225.98C61.217,226.16 60.921,226.538 61.157,226.803C61.47,227.153 63.601,227.427 63.829,226.521C63.938,226.09 63.392,225.885 63.048,225.793Z" style="fill:rgb(64,0,54);fill-rule:nonzero;"/>
            </g>
        </g>
    </g>
</svg>
